<?xml version="1.0" encoding="utf-8"?>
<!-- Generator: Adobe Illustrator 26.0.2, SVG Export Plug-In . SVG Version: 6.00 Build 0)  -->
<svg version="1.1" id="图层_1" xmlns="http://www.w3.org/2000/svg" xmlns:xlink="http://www.w3.org/1999/xlink" x="0px" y="0px"
	 viewBox="0 0 128 128" style="enable-background:new 0 0 128 128;" xml:space="preserve">
<style type="text/css">
	.st0{fill:#363D52;}
	.st1{fill-opacity:0.4;}
	.st2{fill:#FAFAFA;}
</style>
<g transform="translate(32 32)">
	<path class="st0" d="M-16-32c-8.9,0-16,7.1-16,16v96c0,8.9,7.1,16,16,16h96c8.9,0,16-7.1,16-16v-96c0-8.9-7.1-16-16-16H-16z"/>
	<path class="st1" d="M80-32h-96c-8.9,0-16,7.1-16,16v96c0,8.9,7.1,16,16,16h96c8.9,0,16-7.1,16-16v-96C96-24.9,88.9-32,80-32z
		 M87.6-12.4v88.9c0,6.1-5,11.1-11.1,11.1h-88.9c-6.1,0-11.1-5-11.1-11.1v-88.9c0-6.1,5-11.1,11.1-11.1h88.9
		C82.6-23.5,87.6-18.6,87.6-12.4z"/>
</g>
<g>
	<g>
		<path class="st2" d="M31.8,98.4c-1.7-0.6-2.5-2-2.5-4.2c0-1.2,0.1-2,0.3-2.5c0.2-0.5,0.8-1,1.6-1.4c0.5-0.2,1.5-0.3,3.3-0.3h2.7
			V38.1h-2.7c-1.7,0-2.8-0.1-3.3-0.3c-1.3-0.8-1.9-2.1-1.9-4c0-2.3,0.8-3.6,2.5-4.2h0.9c0.6,0,1.4,0,2.4,0c1,0,2.1,0,3.3-0.1
			c1.2,0,2.6-0.1,4.1-0.1c1.5,0,3,0,4.3,0c2.2,0,4.5,0,7,0.1c2.5,0,4.5,0.1,6.1,0.1c1.6,0,2.5,0,2.5,0c5.7,0.5,10.5,3.3,14.3,8.2
			c2.9,3.9,4.4,8.3,4.4,13.1c0,1.3-0.1,2.4-0.2,3.5c-0.8,4.8-2.9,8.8-6.2,12.1c-3.3,3.2-7.4,5.2-12.4,5.9c-0.5,0.1-3.3,0.1-8.5,0.1
			h-7.4v17.4h2.7c1.7,0,2.9,0.1,3.4,0.3c1.3,0.8,1.9,2.1,1.9,4c0,2.1-0.8,3.5-2.5,4.2H31.8z M71.8,51c0-3.2-1-5.9-3.1-8.1
			c-2.1-2.3-4.6-3.8-7.7-4.5c-0.5-0.1-3-0.1-7.6-0.2h-6.8V64h6.8c4.6-0.1,7.1-0.2,7.6-0.2c3.1-0.8,5.7-2.3,7.7-4.5
			C70.8,57,71.8,54.2,71.8,51z"/>
	</g>
	<g>
		<path class="st2" d="M64,94.2c0-2.1,0.8-3.5,2.4-4.2h29.7c1.7,0.8,2.5,2.2,2.5,4.2c0,2-0.8,3.4-2.5,4.2H66.4
			C64.8,97.7,64,96.3,64,94.2z"/>
	</g>
</g>
</svg>
