<?xml version="1.0" standalone="no"?>
<!DOCTYPE svg PUBLIC "-//W3C//DTD SVG 20010904//EN"
 "http://www.w3.org/TR/2001/REC-SVG-20010904/DTD/svg10.dtd">
<svg version="1.0" xmlns="http://www.w3.org/2000/svg"
 width="700.000000pt" height="700.000000pt" viewBox="0 0 700.000000 700.000000"
 preserveAspectRatio="xMidYMid meet">
<metadata>
Created by potrace 1.14, written by Peter Selinger 2001-2017
</metadata>
<g transform="translate(0.000000,700.000000) scale(0.100000,-0.100000)"
fill="#000000" stroke="none">
<path d="M700 6985 c-242 -50 -452 -198 -579 -409 -37 -62 -71 -143 -98 -232
-17 -56 -18 -202 -21 -2799 -2 -2012 0 -2759 8 -2813 53 -342 302 -613 651
-709 60 -17 220 -18 2839 -18 2619 0 2779 1 2839 18 349 96 598 367 651 709 8
54 10 801 8 2813 -3 2597 -4 2743 -21 2799 -27 89 -61 170 -98 232 -130 217
-353 369 -603 413 -41 8 -920 11 -2785 10 -2230 -1 -2738 -3 -2791 -14z m2475
-1605 c309 -7 336 -9 420 -33 300 -85 552 -294 703 -587 104 -198 137 -352
129 -595 -6 -194 -31 -304 -105 -460 -65 -135 -118 -211 -222 -319 -145 -151
-321 -253 -540 -314 l-95 -26 -462 -4 -463 -3 0 -480 0 -479 133 0 c167 -1
203 -9 243 -54 87 -100 69 -311 -32 -380 l-39 -26 -553 0 c-594 0 -580 -1
-629 52 -41 43 -56 96 -56 193 0 110 15 144 78 180 41 25 56 27 200 32 l155 6
-2 1416 -3 1416 -155 5 c-88 3 -164 10 -175 17 -77 43 -114 152 -94 275 12 75
33 113 79 141 32 20 52 22 230 27 312 9 898 9 1255 0z m2123 -3330 c53 -38 83
-98 89 -175 9 -101 -26 -185 -96 -232 l-34 -23 -818 0 -819 0 -41 37 c-47 43
-68 86 -76 163 -10 100 31 198 101 241 30 18 65 19 842 19 l811 0 41 -30z"/>
<path d="M2550 4204 l0 -707 398 6 c365 5 402 7 454 25 379 135 580 451 514
810 -36 202 -179 384 -385 491 -146 75 -140 74 -583 79 l-398 3 0 -707z"/>
</g>
</svg>
